<svg xmlns="http://www.w3.org/2000/svg" version="1.1" xmlns:xlink="http://www.w3.org/1999/xlink" xmlns:svgjs="http://svgjs.dev/svgjs" width="512" height="512"><svg width="512" height="512" viewBox="0 0 512 512" fill="none" xmlns="http://www.w3.org/2000/svg" xmlns:xlink="http://www.w3.org/1999/xlink" class=""><rect id="SvgjsRect1046" width="512" height="512" x="0" y="0" rx="128" fill="url(#«ra»)" stroke="#FFFFFF" stroke-width="0" stroke-opacity="100%" paint-order="stroke"></rect><clipPath id="SvgjsClipPath1045"><use xlink:href="#«r9»"></use></clipPath><defs><linearGradient id="SvgjsLinearGradient1044" gradientUnits="userSpaceOnUse" gradientTransform="rotate(45)" style="transform-origin: center center;"><stop stop-color="#00B4DB"></stop><stop offset="1" stop-color="#003357"></stop></linearGradient><radialGradient id="SvgjsRadialGradient1043" cx="0" cy="0" r="1" gradientUnits="userSpaceOnUse" gradientTransform="translate(256) rotate(90) scale(512)"><stop stop-color="white"></stop><stop offset="1" stop-color="white" stop-opacity="0"></stop></radialGradient></defs><svg xmlns="http://www.w3.org/2000/svg" fill="none" viewBox="0 0 16 16" width="352" height="352" x="80" y="80" alignment-baseline="middle" style="color: rgb(255, 255, 255);"><path stroke="currentColor" stroke-linecap="round" stroke-linejoin="round" stroke-width="1.5" d="M13.25 12.25v-8.5a2 2 0 0 0-2-2h-6.5a2 2 0 0 0-2 2v8.5a2 2 0 0 0 2 2h6.5a2 2 0 0 0 2-2Z"></path><path fill="currentColor" d="M4.75 6.5a.5.5 0 0 1 .5-.5h.5a.5.5 0 0 1 .5.5V7a.5.5 0 0 1-.5.5h-.5a.5.5 0 0 1-.5-.5v-.5ZM4.75 9a.5.5 0 0 1 .5-.5h.5a.5.5 0 0 1 .5.5v.5a.5.5 0 0 1-.5.5h-.5a.5.5 0 0 1-.5-.5V9ZM4.75 11.5a.5.5 0 0 1 .5-.5h.5a.5.5 0 0 1 .5.5v.5a.5.5 0 0 1-.5.5h-.5a.5.5 0 0 1-.5-.5v-.5ZM7.25 6.5a.5.5 0 0 1 .5-.5h.5a.5.5 0 0 1 .5.5V7a.5.5 0 0 1-.5.5h-.5a.5.5 0 0 1-.5-.5v-.5ZM7.25 9a.5.5 0 0 1 .5-.5h.5a.5.5 0 0 1 .5.5v.5a.5.5 0 0 1-.5.5h-.5a.5.5 0 0 1-.5-.5V9ZM7.25 11.5a.5.5 0 0 1 .5-.5h.5a.5.5 0 0 1 .5.5v.5a.5.5 0 0 1-.5.5h-.5a.5.5 0 0 1-.5-.5v-.5ZM9.75 6.5a.5.5 0 0 1 .5-.5h.5a.5.5 0 0 1 .5.5V7a.5.5 0 0 1-.5.5h-.5a.5.5 0 0 1-.5-.5v-.5ZM9.75 9a.5.5 0 0 1 .5-.5h.5a.5.5 0 0 1 .5.5v3a.5.5 0 0 1-.5.5h-.5a.5.5 0 0 1-.5-.5V9Z"></path></svg></svg><style>@media (prefers-color-scheme: light) { :root { filter: none; } }
@media (prefers-color-scheme: dark) { :root { filter: none; } }
</style></svg>